<?xml version="1.0" encoding="utf-8"?>
<!-- Generator: Adobe Illustrator 26.0.0, SVG Export Plug-In . SVG Version: 6.00 Build 0)  -->
<svg version="1.1" id="Слой_1" xmlns="http://www.w3.org/2000/svg" xmlns:xlink="http://www.w3.org/1999/xlink" x="0px" y="0px"
	 viewBox="0 0 50 50" style="enable-background:new 0 0 50 50;" xml:space="preserve">
<style type="text/css">
	.st0{fill:#448800;}
	.st1{fill:#FFFFFF;}
</style>
<circle class="st0" cx="24.4" cy="24.6" r="22.4"/>
<path class="st1" d="M34.1,22.1H20.2l1.2-1.2c0.9-0.9,0.9-2.4,0-3.3s-2.4-0.9-3.3,0l-5.7,5.8c-0.1,0.1-0.1,0.1-0.2,0.2
	c-0.7,0.7-0.8,1.7-0.5,2.6c0,0,0,0.1,0,0.1c0,0.1,0.1,0.2,0.2,0.3c0.1,0.1,0.2,0.3,0.3,0.4c0,0,0,0,0.1,0.1l5.9,5.8
	c0.9,0.9,2.4,0.9,3.3,0c0.9-0.9,0.9-2.4,0-3.3l-1.1-1.1h13.8c1.7,0,3.1-1.4,3.1-3.1S35.8,22.1,34.1,22.1z"/>
</svg>
