<?xml version="1.0" encoding="utf-8"?>
<!-- Generator: Adobe Illustrator 26.0.0, SVG Export Plug-In . SVG Version: 6.00 Build 0)  -->
<svg version="1.1" id="Слой_1" xmlns="http://www.w3.org/2000/svg" xmlns:xlink="http://www.w3.org/1999/xlink" x="0px" y="0px"
	 viewBox="0 0 50 50" style="enable-background:new 0 0 50 50;" xml:space="preserve">
<style type="text/css">
	.st0{fill:#448800;}
</style>
<g>
	<path class="st0" d="M3.6,21.6c0,0,1.4,2.4,1.8,2.7s0.1,0.7,0.5,1.2c0.4,0.5,3.2,4,4.9,5.3s2.4,2.2,3.5,3.1s2.3,1,3.2,2.3
		c0.9,1.3,7.1,6.5,8.4,7.6c1.3,1.1,4.2,3,7.6,2c3.4-1.1,4.3-4.6,4.5-6.2c0.2-1.5,0.3-2.6,0.6-3.6c0.3-1,0.7-1.5,1.1-4
		c0.4-2.5,0.4-2.9,1-4.4c0.7-1.5,1.7-2,2.2-4.4s0.5-3.6,1.2-4.4c0.7-0.7,1.5-1.9,1.4-2.1c-0.1-0.2-2.3,2.2-3,2.5
		c-0.7,0.2-4.7,3.6-5.7,4.6c-1,1-2.1,2.2-2.1,1.9c0-0.3,0-4.9-0.1-7.2c-0.1-2.3,0.1-5.4-0.4-6.7s-1-2-1-2.9S33,6.9,32.9,6.6
		c0-0.3-0.4-0.3-0.4,0.2s-0.4,2.6-0.7,3c-0.3,0.4-1.6,2.5-1.8,5.9C30,19.1,29.5,21.8,29,23s-0.8,2.8-1.9,2.2c-1-0.6-5.2-6-6.6-7.5
		s-1.9-2.3-3.1-3c-1.2-0.8-1.8-0.5-2.3-1c-0.4-0.5-1.1-1.5-1.4-1.8c-0.3-0.3-0.5-0.3-0.1,0.4c0.4,0.7,1,2.2,1.2,2.8
		c0.2,0.6,1,3.3,2.1,5.5s4.5,8.4,4.2,8.4s-3.3,0.3-6-1.4s-5.1-3.6-6.7-4s-1.7,0.3-2.2-0.1c-0.5-0.4-2.1-2-2.4-2.2S3.3,21.1,3.6,21.6
		z"/>
	<path class="st0" d="M1.9,19.4c0,0,1.6,1.6,1.4,1.6c-0.2-0.1-0.4-0.2-0.3,0c0.1,0.1,0.2,0.5,0,0.3C2.8,21,1.9,19.6,1.9,19.4
		C1.8,19.3,1.8,19.3,1.9,19.4z"/>
	<path class="st0" d="M12.6,9.4c0,0,1,2,0.8,1.9c-0.2-0.1-0.3-0.3-0.3-0.1c0,0.2,0,0.5-0.1,0.2c-0.1-0.3-0.5-1.9-0.5-2
		C12.4,9.2,12.5,9.2,12.6,9.4z"/>
	<path class="st0" d="M33,3.8c0,0,0.1,2.3,0,2.1c-0.1-0.2-0.2-0.4-0.2-0.2c0,0.2-0.2,0.5-0.2,0.2c0-0.3,0.3-1.9,0.3-2.1
		C32.9,3.6,33,3.7,33,3.8z"/>
	<path class="st0" d="M47.1,14.9c0,0-1.4,1.8-1.4,1.6c0-0.2,0.1-0.4,0-0.3c-0.1,0.1-0.4,0.2-0.3,0C45.6,15.9,46.9,14.9,47.1,14.9
		C47.1,14.7,47.1,14.7,47.1,14.9z"/>
</g>
</svg>
